<svg width="133" height="15" viewBox="0 0 133 15" fill="none" xmlns="http://www.w3.org/2000/svg">
<path d="M0.948608 14C1.03861 13.328 1.12561 12.656 1.20961 11.984C1.29361 11.312 1.38361 10.583 1.47961 9.79703L2.01061 5.49503C2.11261 4.72103 2.20561 3.98903 2.28961 3.29903C2.37361 2.60903 2.46061 1.89803 2.55061 1.16603H5.54761C5.83561 1.89803 6.10861 2.60003 6.36661 3.27203C6.63061 3.93803 6.89161 4.60103 7.14961 5.26103L8.67961 9.18503H8.87761L10.3626 5.27003C10.6146 4.60403 10.8636 3.94403 11.1096 3.29003C11.3616 2.63603 11.6256 1.92803 11.9016 1.16603H14.8626C14.9526 1.88603 15.0396 2.59103 15.1236 3.28103C15.2136 3.97103 15.3096 4.71203 15.4116 5.50403L15.9606 9.82403C16.0566 10.604 16.1466 11.324 16.2306 11.984C16.3206 12.644 16.4076 13.316 16.4916 14H13.6746C13.5666 13.1 13.4616 12.245 13.3596 11.435C13.2576 10.625 13.1646 9.86603 13.0806 9.15803L12.7026 6.11603H12.5046L11.3886 9.38303C11.1186 10.187 10.8456 10.985 10.5696 11.777C10.2996 12.563 10.0476 13.304 9.81361 14H7.85161C7.68361 13.55 7.50061 13.067 7.30261 12.551C7.11061 12.035 6.91261 11.51 6.70861 10.976C6.50461 10.436 6.30361 9.90803 6.10561 9.39203L4.86361 6.11603H4.66561L4.29661 9.14003C4.21261 9.85403 4.11961 10.619 4.01761 11.435C3.92161 12.245 3.81961 13.1 3.71161 14H0.948608Z" fill="#2431A5"/>
<path d="M18.7212 14C18.7212 13.31 18.7212 12.641 18.7212 11.993C18.7212 11.345 18.7212 10.619 18.7212 9.81503V5.45903C18.7212 4.63103 18.7212 3.88403 18.7212 3.21803C18.7212 2.55203 18.7212 1.86803 18.7212 1.16603H21.7452C21.7452 1.86803 21.7452 2.55203 21.7452 3.21803C21.7452 3.88403 21.7452 4.63103 21.7452 5.45903V9.81503C21.7452 10.619 21.7452 11.345 21.7452 11.993C21.7452 12.641 21.7452 13.31 21.7452 14H18.7212Z" fill="#2431A5"/>
<path d="M30.5104 14.243C29.4664 14.243 28.5274 14.084 27.6934 13.766C26.8594 13.448 26.1454 12.995 25.5514 12.407C24.9634 11.813 24.5134 11.111 24.2014 10.301C23.8894 9.48503 23.7334 8.58203 23.7334 7.59203C23.7334 6.30803 23.9944 5.16203 24.5164 4.15403C25.0384 3.14003 25.7884 2.34503 26.7664 1.76903C27.7444 1.19303 28.9144 0.905029 30.2764 0.905029C30.6904 0.905029 31.0984 0.932029 31.5004 0.986029C31.9084 1.04003 32.2984 1.11203 32.6704 1.20203C33.0424 1.29203 33.3874 1.39703 33.7054 1.51703C34.0294 1.63103 34.3174 1.75403 34.5694 1.88603L34.3444 4.64003C33.8764 4.34603 33.4264 4.11203 32.9944 3.93803C32.5624 3.75803 32.1454 3.62903 31.7434 3.55103C31.3474 3.46703 30.9694 3.42503 30.6094 3.42503C29.8774 3.42503 29.2264 3.58703 28.6564 3.91103C28.0864 4.22903 27.6364 4.70003 27.3064 5.32403C26.9824 5.94203 26.8204 6.69803 26.8204 7.59203C26.8204 8.16203 26.9044 8.70203 27.0724 9.21203C27.2404 9.71603 27.4924 10.163 27.8284 10.553C28.1704 10.943 28.5964 11.249 29.1064 11.471C29.6164 11.693 30.2134 11.804 30.8974 11.804C31.1794 11.804 31.4614 11.786 31.7434 11.75C32.0314 11.708 32.3194 11.645 32.6074 11.561C32.8954 11.477 33.1834 11.363 33.4714 11.219C33.7594 11.069 34.0474 10.889 34.3354 10.679L34.4974 13.397C34.2394 13.541 33.9544 13.667 33.6424 13.775C33.3304 13.883 33.0004 13.97 32.6524 14.036C32.3104 14.108 31.9564 14.159 31.5904 14.189C31.2304 14.225 30.8704 14.243 30.5104 14.243Z" fill="#2431A5"/>
<path d="M36.6231 14C36.6231 13.31 36.6231 12.641 36.6231 11.993C36.6231 11.345 36.6231 10.619 36.6231 9.81503V5.45903C36.6231 4.63103 36.6231 3.88403 36.6231 3.21803C36.6231 2.55203 36.6231 1.86803 36.6231 1.16603H45.1461V3.58703C44.5941 3.58703 44.0001 3.58703 43.3641 3.58703C42.7341 3.58703 41.9901 3.58703 41.1321 3.58703H38.1081L39.5211 1.63403C39.5211 2.33603 39.5211 3.02003 39.5211 3.68603C39.5211 4.35203 39.5211 5.09903 39.5211 5.92703V9.34703C39.5211 10.145 39.5211 10.871 39.5211 11.525C39.5211 12.173 39.5211 12.842 39.5211 13.532L38.2971 11.579H41.3481C42.0621 11.579 42.7371 11.579 43.3731 11.579C44.0151 11.579 44.6331 11.579 45.2271 11.579V14H36.6231ZM38.8461 8.65403V6.40403H41.1951C41.9871 6.40403 42.6651 6.40403 43.2291 6.40403C43.7931 6.40403 44.3361 6.40403 44.8581 6.40403V8.65403C44.3061 8.65403 43.7481 8.65403 43.1841 8.65403C42.6201 8.65403 41.9571 8.65403 41.1951 8.65403H38.8461Z" fill="#2431A5"/>
<path d="M51.8723 14C51.2243 14 50.6213 14 50.0633 14C49.5113 14 49.0073 14 48.5513 14C48.1013 14 47.7053 14 47.3633 14C47.3633 13.31 47.3633 12.641 47.3633 11.993C47.3633 11.345 47.3633 10.619 47.3633 9.81503V5.45903C47.3633 4.63103 47.3633 3.88403 47.3633 3.21803C47.3633 2.55203 47.3633 1.86803 47.3633 1.16603C48.0893 1.16603 48.9053 1.16603 49.8113 1.16603C50.7173 1.16603 51.6323 1.16603 52.5563 1.16603C53.4323 1.16603 54.1643 1.23803 54.7523 1.38203C55.3463 1.52003 55.8173 1.72103 56.1653 1.98503C56.5193 2.24303 56.7713 2.55203 56.9213 2.91203C57.0773 3.27203 57.1553 3.67403 57.1553 4.11803C57.1553 4.66403 57.0533 5.13803 56.8493 5.54003C56.6453 5.94203 56.3663 6.27503 56.0123 6.53903C55.6583 6.79703 55.2593 6.98303 54.8153 7.09703V7.32203C55.3253 7.43603 55.7783 7.61303 56.1743 7.85303C56.5763 8.09303 56.8883 8.42003 57.1103 8.83403C57.3323 9.24803 57.4433 9.77003 57.4433 10.4C57.4433 10.94 57.3563 11.432 57.1823 11.876C57.0143 12.314 56.7203 12.692 56.3003 13.01C55.8863 13.328 55.3193 13.574 54.5993 13.748C53.8793 13.916 52.9703 14 51.8723 14ZM50.2703 11.777H52.1423C52.6583 11.777 53.0813 11.714 53.4113 11.588C53.7473 11.462 53.9933 11.279 54.1493 11.039C54.3053 10.799 54.3833 10.502 54.3833 10.148C54.3833 9.61403 54.2033 9.22103 53.8433 8.96903C53.4833 8.71103 52.9643 8.58203 52.2863 8.58203H49.5683V6.50303H52.1603C52.5983 6.50303 52.9613 6.43403 53.2493 6.29603C53.5373 6.15203 53.7503 5.96003 53.8883 5.72003C54.0323 5.48003 54.1043 5.20103 54.1043 4.88303C54.1043 4.38503 53.9573 4.01003 53.6633 3.75803C53.3693 3.50003 52.9223 3.37103 52.3223 3.37103H50.2703C50.2703 3.78503 50.2703 4.20803 50.2703 4.64003C50.2703 5.07203 50.2703 5.56403 50.2703 6.11603V9.17603C50.2703 9.69203 50.2703 10.157 50.2703 10.571C50.2703 10.979 50.2703 11.381 50.2703 11.777Z" fill="#121212"/>
<path d="M65.4103 14.243C64.2523 14.243 63.2503 14.066 62.4043 13.712C61.5583 13.352 60.8623 12.863 60.3163 12.245C59.7703 11.621 59.3623 10.91 59.0923 10.112C58.8283 9.31403 58.6963 8.47403 58.6963 7.59203C58.6963 6.34403 58.9423 5.21603 59.4343 4.20803C59.9323 3.19403 60.6703 2.39003 61.6483 1.79603C62.6323 1.20203 63.8593 0.905029 65.3293 0.905029C66.4453 0.905029 67.4203 1.07903 68.2543 1.42703C69.0883 1.76903 69.7813 2.24603 70.3333 2.85803C70.8913 3.47003 71.3083 4.17803 71.5843 4.98203C71.8603 5.78603 71.9983 6.65003 71.9983 7.57403C71.9983 8.85203 71.7433 9.99203 71.2333 10.994C70.7293 11.996 69.9883 12.788 69.0103 13.37C68.0323 13.952 66.8323 14.243 65.4103 14.243ZM65.3653 11.804C65.9593 11.804 66.4783 11.693 66.9223 11.471C67.3663 11.243 67.7353 10.931 68.0293 10.535C68.3233 10.139 68.5423 9.68903 68.6863 9.18503C68.8363 8.67503 68.9113 8.13803 68.9113 7.57403C68.9113 6.98003 68.8303 6.42803 68.6683 5.91803C68.5123 5.40203 68.2813 4.95203 67.9753 4.56803C67.6753 4.18403 67.3063 3.88403 66.8683 3.66803C66.4303 3.45203 65.9293 3.34403 65.3653 3.34403C64.7833 3.34403 64.2673 3.45503 63.8173 3.67703C63.3733 3.89903 63.0013 4.20803 62.7013 4.60403C62.4013 4.99403 62.1733 5.44403 62.0173 5.95403C61.8613 6.46403 61.7833 7.00403 61.7833 7.57403C61.7833 8.14403 61.8583 8.68403 62.0083 9.19403C62.1583 9.69803 62.3803 10.148 62.6743 10.544C62.9743 10.934 63.3463 11.243 63.7903 11.471C64.2403 11.693 64.7653 11.804 65.3653 11.804Z" fill="#121212"/>
<path d="M80.0704 14.243C78.9124 14.243 77.9104 14.066 77.0644 13.712C76.2184 13.352 75.5224 12.863 74.9764 12.245C74.4304 11.621 74.0224 10.91 73.7524 10.112C73.4884 9.31403 73.3564 8.47403 73.3564 7.59203C73.3564 6.34403 73.6024 5.21603 74.0944 4.20803C74.5924 3.19403 75.3304 2.39003 76.3084 1.79603C77.2924 1.20203 78.5194 0.905029 79.9894 0.905029C81.1054 0.905029 82.0804 1.07903 82.9144 1.42703C83.7484 1.76903 84.4414 2.24603 84.9934 2.85803C85.5514 3.47003 85.9684 4.17803 86.2444 4.98203C86.5204 5.78603 86.6584 6.65003 86.6584 7.57403C86.6584 8.85203 86.4034 9.99203 85.8934 10.994C85.3894 11.996 84.6484 12.788 83.6704 13.37C82.6924 13.952 81.4924 14.243 80.0704 14.243ZM80.0254 11.804C80.6194 11.804 81.1384 11.693 81.5824 11.471C82.0264 11.243 82.3954 10.931 82.6894 10.535C82.9834 10.139 83.2024 9.68903 83.3464 9.18503C83.4964 8.67503 83.5714 8.13803 83.5714 7.57403C83.5714 6.98003 83.4904 6.42803 83.3284 5.91803C83.1724 5.40203 82.9414 4.95203 82.6354 4.56803C82.3354 4.18403 81.9664 3.88403 81.5284 3.66803C81.0904 3.45203 80.5894 3.34403 80.0254 3.34403C79.4434 3.34403 78.9274 3.45503 78.4774 3.67703C78.0334 3.89903 77.6614 4.20803 77.3614 4.60403C77.0614 4.99403 76.8334 5.44403 76.6774 5.95403C76.5214 6.46403 76.4434 7.00403 76.4434 7.57403C76.4434 8.14403 76.5184 8.68403 76.6684 9.19403C76.8184 9.69803 77.0404 10.148 77.3344 10.544C77.6344 10.934 78.0064 11.243 78.4504 11.471C78.9004 11.693 79.4254 11.804 80.0254 11.804Z" fill="#121212"/>
<path d="M95.9996 14C95.6036 13.43 95.2286 12.896 94.8746 12.398C94.5266 11.894 94.1846 11.399 93.8486 10.913L92.1566 8.49203H91.3286V6.17003H92.1206L93.6326 4.19003C93.9926 3.72203 94.3496 3.25703 94.7036 2.79503C95.0576 2.32703 95.4686 1.78403 95.9366 1.16603H99.3476C98.7896 1.84403 98.2436 2.51003 97.7096 3.16403C97.1816 3.81803 96.6506 4.47803 96.1166 5.14403L94.0826 7.65503L94.0286 6.35003L96.2876 9.47303C96.6356 9.95303 97.0076 10.469 97.4036 11.021C97.8056 11.573 98.1956 12.11 98.5736 12.632C98.9516 13.154 99.2846 13.61 99.5726 14H95.9996ZM88.6106 14C88.6106 13.31 88.6106 12.641 88.6106 11.993C88.6106 11.345 88.6106 10.619 88.6106 9.81503V5.45903C88.6106 4.63103 88.6106 3.88403 88.6106 3.21803C88.6106 2.55203 88.6106 1.86803 88.6106 1.16603H91.5626C91.5626 1.86803 91.5626 2.55203 91.5626 3.21803C91.5626 3.88403 91.5626 4.63103 91.5626 5.45903V9.81503C91.5626 10.619 91.5626 11.345 91.5626 11.993C91.5626 12.641 91.5626 13.31 91.5626 14H88.6106Z" fill="#121212"/>
<path d="M101.233 14C101.233 13.31 101.233 12.641 101.233 11.993C101.233 11.345 101.233 10.619 101.233 9.81503V5.45903C101.233 4.63103 101.233 3.88403 101.233 3.21803C101.233 2.55203 101.233 1.86803 101.233 1.16603H104.257C104.257 1.86803 104.257 2.55203 104.257 3.21803C104.257 3.88403 104.257 4.63103 104.257 5.45903V9.81503C104.257 10.619 104.257 11.345 104.257 11.993C104.257 12.641 104.257 13.31 104.257 14H101.233Z" fill="#121212"/>
<path d="M106.839 14C106.839 13.31 106.839 12.641 106.839 11.993C106.839 11.345 106.839 10.619 106.839 9.81503V5.45903C106.839 4.63103 106.839 3.88403 106.839 3.21803C106.839 2.55203 106.839 1.86803 106.839 1.16603H109.422C110.022 2.04203 110.589 2.87003 111.123 3.65003C111.657 4.42403 112.191 5.20103 112.725 5.98103L114.813 9.00503H115.029V5.45903C115.029 4.63103 115.029 3.88403 115.029 3.21803C115.029 2.55203 115.029 1.86803 115.029 1.16603H117.81C117.81 1.86803 117.81 2.55203 117.81 3.21803C117.81 3.88403 117.81 4.63103 117.81 5.45903V9.81503C117.81 10.619 117.81 11.345 117.81 11.993C117.81 12.641 117.81 13.31 117.81 14H115.254C114.762 13.28 114.246 12.53 113.706 11.75C113.166 10.97 112.575 10.118 111.933 9.19403L109.818 6.13403H109.611V9.81503C109.611 10.619 109.611 11.345 109.611 11.993C109.611 12.641 109.611 13.31 109.611 14H106.839Z" fill="#121212"/>
<path d="M126.675 14.225C125.571 14.225 124.59 14.063 123.732 13.739C122.874 13.409 122.148 12.947 121.554 12.353C120.966 11.759 120.516 11.057 120.204 10.247C119.898 9.43703 119.745 8.54903 119.745 7.58303C119.745 6.27503 120.012 5.12003 120.546 4.11803C121.086 3.11003 121.857 2.32403 122.859 1.76003C123.861 1.19003 125.064 0.905029 126.468 0.905029C126.918 0.905029 127.356 0.935029 127.782 0.995029C128.214 1.04903 128.622 1.12403 129.006 1.22003C129.39 1.31003 129.747 1.41503 130.077 1.53503C130.407 1.64903 130.698 1.76903 130.95 1.89503L130.725 4.64003C130.221 4.35203 129.732 4.11803 129.258 3.93803C128.79 3.75803 128.34 3.62903 127.908 3.55103C127.482 3.46703 127.08 3.42503 126.702 3.42503C126.15 3.42503 125.637 3.51503 125.163 3.69503C124.695 3.86903 124.284 4.13303 123.93 4.48703C123.576 4.84103 123.3 5.27903 123.102 5.80103C122.91 6.31703 122.814 6.91403 122.814 7.59203C122.814 8.17403 122.895 8.72303 123.057 9.23903C123.225 9.75503 123.477 10.211 123.813 10.607C124.149 10.997 124.575 11.303 125.091 11.525C125.613 11.747 126.225 11.858 126.927 11.858C127.299 11.858 127.653 11.84 127.989 11.804C128.325 11.768 128.649 11.711 128.961 11.633C129.273 11.555 129.579 11.459 129.879 11.345C130.185 11.225 130.491 11.081 130.797 10.913L131.148 13.55C130.944 13.634 130.68 13.718 130.356 13.802C130.038 13.88 129.678 13.952 129.276 14.018C128.88 14.084 128.46 14.135 128.016 14.171C127.572 14.207 127.125 14.225 126.675 14.225ZM128.367 13.604C128.367 12.932 128.367 12.344 128.367 11.84C128.367 11.336 128.367 10.829 128.367 10.319C128.367 9.73103 128.367 9.20903 128.367 8.75303C128.367 8.29703 128.367 7.83203 128.367 7.35803H131.148C131.148 7.83203 131.148 8.29703 131.148 8.75303C131.148 9.20903 131.148 9.73103 131.148 10.319C131.148 10.829 131.148 11.336 131.148 11.84C131.148 12.338 131.148 12.908 131.148 13.55L128.367 13.604Z" fill="#121212"/>
</svg>
